# xmcd CD database file
# Copyright (C) 1997 Ti Kan
#
# Track frame offsets:
#  150
#  17838
#  34950
#  51675
#  72145
#  83850
#  103380
#  121963
#  137925
#  155650
#
# Disc length: 2339 seconds
#
# Revision: 1
# Processed by: cddbd v1.4b41PL1 Copyright (c) Steve Scherf et al.
# Submitted via: CDWizzard Release:4.20
#
DISCID=9509210a
DTITLE=Smokey Robinson - Double Good Everything
DYEAR=1900
DGENRE=
TTITLE0=Why
TTITLE1=Double Good Everythingq
TTITLE2=Rewind
TTITLE3=Be Who You Are
TTITLE4=I Love Your Face
TTITLE5=I Can't Get Enough
TTITLE6=Rack Me Back
TTITLE7=When A Woman Cries
TTITLE8=You Take Me Away
TTITLE9=Skid Row
EXTD=
EXTT0=
EXTT1=
EXTT2=
EXTT3=
EXTT4=
EXTT5=
EXTT6=
EXTT7=
EXTT8=
EXTT9=
PLAYORDER=
